<svg width="793" height="394" xmlns="http://www.w3.org/2000/svg" xmlns:xlink="http://www.w3.org/1999/xlink" xml:space="preserve" overflow="hidden"><g transform="translate(-3492 -1975)"><g><path d="M3916.3 2230.16C4095.47 2009.3 3608.65 1912.6 3497.5 2268.5" stroke="#000000" stroke-width="9.16667" stroke-linecap="round" stroke-linejoin="miter" stroke-miterlimit="4" stroke-opacity="1" fill="none" fill-rule="evenodd"/><path d="M3788.5 2055.5C3735.7 2081.81 3652.59 2107.76 3599.5 2273.5" stroke="#000000" stroke-width="9.16667" stroke-linecap="round" stroke-linejoin="miter" stroke-miterlimit="4" stroke-opacity="1" fill="none" fill-rule="evenodd"/><path d="M4175.17 2225.5C4277.68 2120.38 4187.01 1898.37 3877.5 2017.91" stroke="#000000" stroke-width="9.16667" stroke-linecap="round" stroke-linejoin="miter" stroke-miterlimit="4" stroke-opacity="1" fill="none" fill-rule="evenodd"/><path d="M4047.96 2225.5C4101.73 2177.33 4133.96 2031.72 3957.5 2071.21" stroke="#000000" stroke-width="9.16667" stroke-linecap="round" stroke-linejoin="miter" stroke-miterlimit="4" stroke-opacity="1" fill="none" fill-rule="evenodd"/><path d="M3904.5 2084.5C3794.25 2115.81 3721.47 2217.84 3711.5 2271.5" stroke="#000000" stroke-width="9.16667" stroke-linecap="round" stroke-linejoin="miter" stroke-miterlimit="4" stroke-opacity="1" fill="none" fill-rule="evenodd"/><path d="M4108 2264.46C4108 2254.26 4116.26 2246 4126.46 2246L4212.54 2246C4222.74 2246 4231 2254.26 4231 2264.46L4231 2350.54C4231 2360.74 4222.74 2369 4212.54 2369L4126.46 2369C4116.26 2369 4108 2360.74 4108 2350.54Z" fill="#000000" fill-rule="evenodd" fill-opacity="1"/><path d="M3977 2264.46C3977 2254.26 3985.26 2246 3995.46 2246L4081.54 2246C4091.74 2246 4100 2254.26 4100 2264.46L4100 2350.54C4100 2360.74 4091.74 2369 4081.54 2369L3995.46 2369C3985.26 2369 3977 2360.74 3977 2350.54Z" fill="#000000" fill-rule="evenodd" fill-opacity="1"/><path d="M3846 2264.31C3846 2254.2 3854.2 2246 3864.31 2246L3949.69 2246C3959.8 2246 3968 2254.2 3968 2264.31L3968 2350.69C3968 2360.8 3959.8 2369 3949.69 2369L3864.31 2369C3854.2 2369 3846 2360.8 3846 2350.69Z" fill="#000000" fill-rule="evenodd" fill-opacity="1"/></g></g></svg>